<?xml version="1.0" encoding="UTF-8" standalone="no"?>
<!DOCTYPE svg PUBLIC "-//W3C//DTD SVG 1.1//EN"
 "http://www.w3.org/Graphics/SVG/1.1/DTD/svg11.dtd">
<!-- Generated by graphviz version 2.47.0 (20210316.0004)
 -->
<!-- Title: dependencies Pages: 1 -->
<svg width="1231pt" height="436pt"
 viewBox="0.00 0.00 1231.00 436.00" xmlns="http://www.w3.org/2000/svg" xmlns:xlink="http://www.w3.org/1999/xlink">
<g id="graph0" class="graph" transform="scale(1 1) rotate(0) translate(4 432)">
<title>dependencies</title>
<polygon fill="white" stroke="transparent" points="-4,4 -4,-432 1227,-432 1227,4 -4,4"/>
<text text-anchor="start" x="590.51" y="-42.4" font-family="Times-12" font-weight="bold" font-size="14.00">Legend</text>
<polygon fill="#ffffb3" stroke="transparent" points="377.5,-10 377.5,-30 397.5,-30 397.5,-10 377.5,-10"/>
<text text-anchor="start" x="401.13" y="-15.4" font-family="Times-12" font-size="14.00"> &#160;Declarations</text>
<polygon fill="#8dd3c7" stroke="transparent" points="490.5,-10 490.5,-30 510.5,-30 510.5,-10 490.5,-10"/>
<text text-anchor="start" x="514.23" y="-15.4" font-family="Times-12" font-size="14.00"> &#160;Module</text>
<polygon fill="#80b1d3" stroke="transparent" points="576.5,-10 576.5,-30 596.5,-30 596.5,-10 576.5,-10"/>
<text text-anchor="start" x="600.28" y="-15.4" font-family="Times-12" font-size="14.00"> &#160;Bootstrap</text>
<polygon fill="#fdb462" stroke="transparent" points="673.5,-10 673.5,-30 693.5,-30 693.5,-10 673.5,-10"/>
<text text-anchor="start" x="697.17" y="-15.4" font-family="Times-12" font-size="14.00"> &#160;Providers</text>
<polygon fill="#fb8072" stroke="transparent" points="769.5,-10 769.5,-30 789.5,-30 789.5,-10 769.5,-10"/>
<text text-anchor="start" x="793.23" y="-15.4" font-family="Times-12" font-size="14.00"> &#160;Exports</text>
<g id="clust1" class="cluster">
<title>cluster_AppModule</title>
<polygon fill="none" stroke="black" stroke-dasharray="1,5" points="782,-222 782,-420 1180,-420 1180,-222 782,-222"/>
</g>
<g id="clust2" class="cluster">
<title>cluster_AppModule_declarations</title>
<polygon fill="none" stroke="black" points="1050,-230 1050,-282 1172,-282 1172,-230 1050,-230"/>
</g>
<g id="clust4" class="cluster">
<title>cluster_AppModule_imports</title>
<polygon fill="none" stroke="black" points="790,-230 790,-282 1042,-282 1042,-230 790,-230"/>
</g>
<g id="clust6" class="cluster">
<title>cluster_AppModule_bootstrap</title>
<polygon fill="none" stroke="black" points="908,-360 908,-412 1032,-412 1032,-360 908,-360"/>
</g>
<g id="clust14" class="cluster">
<title>cluster_MainModule</title>
<polygon fill="none" stroke="black" stroke-dasharray="1,5" points="503,-146 503,-214 1215,-214 1215,-146 503,-146"/>
</g>
<g id="clust15" class="cluster">
<title>cluster_MainModule_declarations</title>
<polygon fill="none" stroke="black" points="771,-154 771,-206 1207,-206 1207,-154 771,-154"/>
</g>
<g id="clust19" class="cluster">
<title>cluster_MainModule_imports</title>
<polygon fill="none" stroke="black" points="511,-154 511,-206 763,-206 763,-154 511,-154"/>
</g>
<g id="clust29" class="cluster">
<title>cluster_TripModule</title>
<polygon fill="none" stroke="black" stroke-dasharray="1,5" points="8,-70 8,-138 1116,-138 1116,-70 8,-70"/>
</g>
<g id="clust30" class="cluster">
<title>cluster_TripModule_declarations</title>
<polygon fill="none" stroke="black" points="168,-78 168,-130 1108,-130 1108,-78 168,-78"/>
</g>
<g id="clust37" class="cluster">
<title>cluster_TripModule_imports</title>
<polygon fill="none" stroke="black" points="16,-78 16,-130 160,-130 160,-78 16,-78"/>
</g>
<!-- AppComponent -->
<g id="node1" class="node">
<title>AppComponent</title>
<polygon fill="#ffffb3" stroke="black" points="1163.94,-274 1058.06,-274 1058.06,-238 1163.94,-238 1163.94,-274"/>
<text text-anchor="middle" x="1111" y="-251.8" font-family="Times,serif" font-size="14.00">AppComponent</text>
</g>
<!-- AppModule -->
<g id="node2" class="node">
<title>AppModule</title>
<polygon fill="#8dd3c7" stroke="black" points="1011.66,-339 1008.66,-343 987.66,-343 984.66,-339 928.34,-339 928.34,-303 1011.66,-303 1011.66,-339"/>
<text text-anchor="middle" x="970" y="-316.8" font-family="Times,serif" font-size="14.00">AppModule</text>
</g>
<!-- AppComponent&#45;&gt;AppModule -->
<g id="edge1" class="edge">
<title>AppComponent&#45;&gt;AppModule</title>
<path fill="none" stroke="black" d="M1111,-274.11C1111,-293.34 1111,-321 1111,-321 1111,-321 1021.92,-321 1021.92,-321"/>
<polygon fill="black" stroke="black" points="1021.92,-317.5 1011.92,-321 1021.92,-324.5 1021.92,-317.5"/>
</g>
<!-- AppComponent  -->
<g id="node5" class="node">
<title>AppComponent </title>
<polygon fill="#80b1d3" stroke="black" points="1024.44,-404 915.56,-404 915.56,-368 1024.44,-368 1024.44,-404"/>
<text text-anchor="middle" x="970" y="-381.8" font-family="Times,serif" font-size="14.00">AppComponent </text>
</g>
<!-- AppModule&#45;&gt;AppComponent  -->
<g id="edge4" class="edge">
<title>AppModule&#45;&gt;AppComponent </title>
<path fill="none" stroke="black" stroke-dasharray="1,5" d="M970,-339.11C970,-339.11 970,-357.99 970,-357.99"/>
<polygon fill="black" stroke="black" points="966.5,-357.99 970,-367.99 973.5,-357.99 966.5,-357.99"/>
</g>
<!-- AppRoutingModule -->
<g id="node3" class="node">
<title>AppRoutingModule</title>
<polygon fill="#8dd3c7" stroke="black" points="1034.27,-274 1031.27,-278 1010.27,-278 1007.27,-274 905.73,-274 905.73,-238 1034.27,-238 1034.27,-274"/>
<text text-anchor="middle" x="970" y="-251.8" font-family="Times,serif" font-size="14.00">AppRoutingModule</text>
</g>
<!-- AppRoutingModule&#45;&gt;AppModule -->
<g id="edge2" class="edge">
<title>AppRoutingModule&#45;&gt;AppModule</title>
<path fill="none" stroke="black" d="M970,-274.11C970,-274.11 970,-292.99 970,-292.99"/>
<polygon fill="black" stroke="black" points="966.5,-292.99 970,-302.99 973.5,-292.99 966.5,-292.99"/>
</g>
<!-- MainModule -->
<g id="node4" class="node">
<title>MainModule</title>
<polygon fill="#8dd3c7" stroke="black" points="887.6,-274 884.6,-278 863.6,-278 860.6,-274 798.4,-274 798.4,-238 887.6,-238 887.6,-274"/>
<text text-anchor="middle" x="843" y="-251.8" font-family="Times,serif" font-size="14.00">MainModule</text>
</g>
<!-- MainModule&#45;&gt;AppModule -->
<g id="edge3" class="edge">
<title>MainModule&#45;&gt;AppModule</title>
<path fill="none" stroke="black" d="M843,-274.11C843,-293.34 843,-321 843,-321 843,-321 918.06,-321 918.06,-321"/>
<polygon fill="black" stroke="black" points="918.06,-324.5 928.06,-321 918.06,-317.5 918.06,-324.5"/>
</g>
<!-- DashboardComponent -->
<g id="node6" class="node">
<title>DashboardComponent</title>
<polygon fill="#ffffb3" stroke="black" points="1198.97,-198 1057.03,-198 1057.03,-162 1198.97,-162 1198.97,-198"/>
<text text-anchor="middle" x="1128" y="-175.8" font-family="Times,serif" font-size="14.00">DashboardComponent</text>
</g>
<!-- DashboardComponent&#45;&gt;MainModule -->
<g id="edge5" class="edge">
<title>DashboardComponent&#45;&gt;MainModule</title>
<path fill="none" stroke="black" d="M1111,-198.04C1111,-210.56 1111,-225 1111,-225 1111,-225 865.27,-225 865.27,-225 865.27,-225 865.27,-227.97 865.27,-227.97"/>
<polygon fill="black" stroke="black" points="861.77,-227.97 865.27,-237.97 868.77,-227.97 861.77,-227.97"/>
</g>
<!-- LoginComponent -->
<g id="node7" class="node">
<title>LoginComponent</title>
<polygon fill="#ffffb3" stroke="black" points="1039.28,-198 924.72,-198 924.72,-162 1039.28,-162 1039.28,-198"/>
<text text-anchor="middle" x="982" y="-175.8" font-family="Times,serif" font-size="14.00">LoginComponent</text>
</g>
<!-- LoginComponent&#45;&gt;MainModule -->
<g id="edge6" class="edge">
<title>LoginComponent&#45;&gt;MainModule</title>
<path fill="none" stroke="black" d="M979.5,-198.24C979.5,-205.43 979.5,-212 979.5,-212 979.5,-212 843,-212 843,-212 843,-212 843,-227.85 843,-227.85"/>
<polygon fill="black" stroke="black" points="839.5,-227.85 843,-237.85 846.5,-227.85 839.5,-227.85"/>
</g>
<!-- RegisterComponent -->
<g id="node8" class="node">
<title>RegisterComponent</title>
<polygon fill="#ffffb3" stroke="black" points="906.98,-198 779.02,-198 779.02,-162 906.98,-162 906.98,-198"/>
<text text-anchor="middle" x="843" y="-175.8" font-family="Times,serif" font-size="14.00">RegisterComponent</text>
</g>
<!-- RegisterComponent&#45;&gt;MainModule -->
<g id="edge7" class="edge">
<title>RegisterComponent&#45;&gt;MainModule</title>
<path fill="none" stroke="black" d="M820.73,-198.01C820.73,-198.01 820.73,-227.85 820.73,-227.85"/>
<polygon fill="black" stroke="black" points="817.23,-227.85 820.73,-237.85 824.23,-227.85 817.23,-227.85"/>
</g>
<!-- MainRoutingModule -->
<g id="node9" class="node">
<title>MainRoutingModule</title>
<polygon fill="#8dd3c7" stroke="black" points="755.22,-198 752.22,-202 731.22,-202 728.22,-198 620.78,-198 620.78,-162 755.22,-162 755.22,-198"/>
<text text-anchor="middle" x="688" y="-175.8" font-family="Times,serif" font-size="14.00">MainRoutingModule</text>
</g>
<!-- MainRoutingModule&#45;&gt;MainModule -->
<g id="edge8" class="edge">
<title>MainRoutingModule&#45;&gt;MainModule</title>
<path fill="none" stroke="black" d="M688,-198.03C688,-218.77 688,-250 688,-250 688,-250 788.17,-250 788.17,-250"/>
<polygon fill="black" stroke="black" points="788.17,-253.5 798.17,-250 788.17,-246.5 788.17,-253.5"/>
</g>
<!-- TripModule -->
<g id="node10" class="node">
<title>TripModule</title>
<polygon fill="#8dd3c7" stroke="black" points="602.65,-198 599.65,-202 578.65,-202 575.65,-198 519.35,-198 519.35,-162 602.65,-162 602.65,-198"/>
<text text-anchor="middle" x="561" y="-175.8" font-family="Times,serif" font-size="14.00">TripModule</text>
</g>
<!-- TripModule&#45;&gt;MainModule -->
<g id="edge9" class="edge">
<title>TripModule&#45;&gt;MainModule</title>
<path fill="none" stroke="black" d="M561,-198.2C561,-222.36 561,-262 561,-262 561,-262 788.32,-262 788.32,-262"/>
<polygon fill="black" stroke="black" points="788.32,-265.5 798.32,-262 788.32,-258.5 788.32,-265.5"/>
</g>
<!-- AllTripsComponent -->
<g id="node11" class="node">
<title>AllTripsComponent</title>
<polygon fill="#ffffb3" stroke="black" points="1100.27,-122 971.73,-122 971.73,-86 1100.27,-86 1100.27,-122"/>
<text text-anchor="middle" x="1036" y="-99.8" font-family="Times,serif" font-size="14.00">AllTripsComponent</text>
</g>
<!-- AllTripsComponent&#45;&gt;TripModule -->
<g id="edge10" class="edge">
<title>AllTripsComponent&#45;&gt;TripModule</title>
<path fill="none" stroke="black" d="M1005.5,-122.15C1005.5,-135.74 1005.5,-152 1005.5,-152 1005.5,-152 586.1,-152 586.1,-152 586.1,-152 586.1,-152.98 586.1,-152.98"/>
<polygon fill="black" stroke="black" points="582.6,-151.79 586.1,-161.79 589.6,-151.79 582.6,-151.79"/>
</g>
<!-- HomeViewComponent -->
<g id="node12" class="node">
<title>HomeViewComponent</title>
<polygon fill="#ffffb3" stroke="black" points="953.86,-122 808.14,-122 808.14,-86 953.86,-86 953.86,-122"/>
<text text-anchor="middle" x="881" y="-99.8" font-family="Times,serif" font-size="14.00">HomeViewComponent</text>
</g>
<!-- HomeViewComponent&#45;&gt;TripModule -->
<g id="edge11" class="edge">
<title>HomeViewComponent&#45;&gt;TripModule</title>
<path fill="none" stroke="black" d="M857.53,-122.11C857.53,-131.9 857.53,-142 857.53,-142 857.53,-142 569.37,-142 569.37,-142 569.37,-142 569.37,-151.89 569.37,-151.89"/>
<polygon fill="black" stroke="black" points="565.87,-151.89 569.37,-161.89 572.87,-151.89 565.87,-151.89"/>
</g>
<!-- MyTripsComponent -->
<g id="node13" class="node">
<title>MyTripsComponent</title>
<polygon fill="#ffffb3" stroke="black" points="790.33,-122 659.67,-122 659.67,-86 790.33,-86 790.33,-122"/>
<text text-anchor="middle" x="725" y="-99.8" font-family="Times,serif" font-size="14.00">MyTripsComponent</text>
</g>
<!-- MyTripsComponent&#45;&gt;TripModule -->
<g id="edge12" class="edge">
<title>MyTripsComponent&#45;&gt;TripModule</title>
<path fill="none" stroke="black" d="M707.47,-122.21C707.47,-127.55 707.47,-132 707.47,-132 707.47,-132 552.63,-132 552.63,-132 552.63,-132 552.63,-151.85 552.63,-151.85"/>
<polygon fill="black" stroke="black" points="549.13,-151.85 552.63,-161.85 556.13,-151.85 549.13,-151.85"/>
</g>
<!-- MyTripsTableComponent -->
<g id="node14" class="node">
<title>MyTripsTableComponent</title>
<polygon fill="#ffffb3" stroke="black" points="642.2,-122 479.8,-122 479.8,-86 642.2,-86 642.2,-122"/>
<text text-anchor="middle" x="561" y="-99.8" font-family="Times,serif" font-size="14.00">MyTripsTableComponent</text>
</g>
<!-- MyTripsTableComponent&#45;&gt;TripModule -->
<g id="edge13" class="edge">
<title>MyTripsTableComponent&#45;&gt;TripModule</title>
<path fill="none" stroke="black" d="M535.9,-122.01C535.9,-122.01 535.9,-151.85 535.9,-151.85"/>
<polygon fill="black" stroke="black" points="532.4,-151.85 535.9,-161.85 539.4,-151.85 532.4,-151.85"/>
</g>
<!-- TripCardComponent -->
<g id="node15" class="node">
<title>TripCardComponent</title>
<polygon fill="#ffffb3" stroke="black" points="462.15,-122 329.85,-122 329.85,-86 462.15,-86 462.15,-122"/>
<text text-anchor="middle" x="396" y="-99.8" font-family="Times,serif" font-size="14.00">TripCardComponent</text>
</g>
<!-- TripCardComponent&#45;&gt;TripModule -->
<g id="edge14" class="edge">
<title>TripCardComponent&#45;&gt;TripModule</title>
<path fill="none" stroke="black" d="M396,-122.31C396,-142.15 396,-171 396,-171 396,-171 508.94,-171 508.94,-171"/>
<polygon fill="black" stroke="black" points="508.94,-174.5 518.94,-171 508.94,-167.5 508.94,-174.5"/>
</g>
<!-- TripFormComponent -->
<g id="node16" class="node">
<title>TripFormComponent</title>
<polygon fill="#ffffb3" stroke="black" points="311.77,-122 176.23,-122 176.23,-86 311.77,-86 311.77,-122"/>
<text text-anchor="middle" x="244" y="-99.8" font-family="Times,serif" font-size="14.00">TripFormComponent</text>
</g>
<!-- TripFormComponent&#45;&gt;TripModule -->
<g id="edge15" class="edge">
<title>TripFormComponent&#45;&gt;TripModule</title>
<path fill="none" stroke="black" d="M244,-122.01C244,-144.49 244,-180 244,-180 244,-180 509.23,-180 509.23,-180"/>
<polygon fill="black" stroke="black" points="509.23,-183.5 519.23,-180 509.23,-176.5 509.23,-183.5"/>
</g>
<!-- TripRoutingModule -->
<g id="node17" class="node">
<title>TripRoutingModule</title>
<polygon fill="#8dd3c7" stroke="black" points="152.27,-122 149.27,-126 128.27,-126 125.27,-122 23.73,-122 23.73,-86 152.27,-86 152.27,-122"/>
<text text-anchor="middle" x="88" y="-99.8" font-family="Times,serif" font-size="14.00">TripRoutingModule</text>
</g>
<!-- TripRoutingModule&#45;&gt;TripModule -->
<g id="edge16" class="edge">
<title>TripRoutingModule&#45;&gt;TripModule</title>
<path fill="none" stroke="black" d="M88,-122.03C88,-146.98 88,-189 88,-189 88,-189 509.02,-189 509.02,-189"/>
<polygon fill="black" stroke="black" points="509.02,-192.5 519.02,-189 509.02,-185.5 509.02,-192.5"/>
</g>
</g>
</svg>
