<?xml version="1.0" encoding="UTF-8" standalone="no"?>
<!DOCTYPE svg PUBLIC "-//W3C//DTD SVG 1.1//EN"
 "http://www.w3.org/Graphics/SVG/1.1/DTD/svg11.dtd">
<!-- Generated by graphviz version 2.47.0 (20210316.0004)
 -->
<!-- Title: dependencies Pages: 1 -->
<svg width="736pt" height="211pt"
 viewBox="0.00 0.00 736.00 211.00" xmlns="http://www.w3.org/2000/svg" xmlns:xlink="http://www.w3.org/1999/xlink">
<g id="graph0" class="graph" transform="scale(1 1) rotate(0) translate(4 207)">
<title>dependencies</title>
<polygon fill="white" stroke="transparent" points="-4,4 -4,-207 732,-207 732,4 -4,4"/>
<text text-anchor="start" x="343.01" y="-42.4" font-family="Times-12" font-weight="bold" font-size="14.00">Legend</text>
<polygon fill="#ffffb3" stroke="transparent" points="130,-10 130,-30 150,-30 150,-10 130,-10"/>
<text text-anchor="start" x="153.63" y="-15.4" font-family="Times-12" font-size="14.00"> &#160;Declarations</text>
<polygon fill="#8dd3c7" stroke="transparent" points="243,-10 243,-30 263,-30 263,-10 243,-10"/>
<text text-anchor="start" x="266.73" y="-15.4" font-family="Times-12" font-size="14.00"> &#160;Module</text>
<polygon fill="#80b1d3" stroke="transparent" points="329,-10 329,-30 349,-30 349,-10 329,-10"/>
<text text-anchor="start" x="352.78" y="-15.4" font-family="Times-12" font-size="14.00"> &#160;Bootstrap</text>
<polygon fill="#fdb462" stroke="transparent" points="426,-10 426,-30 446,-30 446,-10 426,-10"/>
<text text-anchor="start" x="449.67" y="-15.4" font-family="Times-12" font-size="14.00"> &#160;Providers</text>
<polygon fill="#fb8072" stroke="transparent" points="522,-10 522,-30 542,-30 542,-10 522,-10"/>
<text text-anchor="start" x="545.73" y="-15.4" font-family="Times-12" font-size="14.00"> &#160;Exports</text>
<g id="clust1" class="cluster">
<title>cluster_MainModule</title>
<polygon fill="none" stroke="black" stroke-dasharray="1,5" points="8,-70 8,-195 720,-195 720,-70 8,-70"/>
</g>
<g id="clust2" class="cluster">
<title>cluster_MainModule_declarations</title>
<polygon fill="none" stroke="black" points="276,-78 276,-130 712,-130 712,-78 276,-78"/>
</g>
<g id="clust6" class="cluster">
<title>cluster_MainModule_imports</title>
<polygon fill="none" stroke="black" points="16,-78 16,-130 268,-130 268,-78 16,-78"/>
</g>
<!-- DashboardComponent -->
<g id="node1" class="node">
<title>DashboardComponent</title>
<polygon fill="#ffffb3" stroke="black" points="703.97,-122 562.03,-122 562.03,-86 703.97,-86 703.97,-122"/>
<text text-anchor="middle" x="633" y="-99.8" font-family="Times,serif" font-size="14.00">DashboardComponent</text>
</g>
<!-- MainModule -->
<g id="node4" class="node">
<title>MainModule</title>
<polygon fill="#8dd3c7" stroke="black" points="392.6,-187 389.6,-191 368.6,-191 365.6,-187 303.4,-187 303.4,-151 392.6,-151 392.6,-187"/>
<text text-anchor="middle" x="348" y="-164.8" font-family="Times,serif" font-size="14.00">MainModule</text>
</g>
<!-- DashboardComponent&#45;&gt;MainModule -->
<g id="edge1" class="edge">
<title>DashboardComponent&#45;&gt;MainModule</title>
<path fill="none" stroke="black" d="M633,-122.28C633,-143.32 633,-175 633,-175 633,-175 402.84,-175 402.84,-175"/>
<polygon fill="black" stroke="black" points="402.84,-171.5 392.84,-175 402.84,-178.5 402.84,-171.5"/>
</g>
<!-- LoginComponent -->
<g id="node2" class="node">
<title>LoginComponent</title>
<polygon fill="#ffffb3" stroke="black" points="544.28,-122 429.72,-122 429.72,-86 544.28,-86 544.28,-122"/>
<text text-anchor="middle" x="487" y="-99.8" font-family="Times,serif" font-size="14.00">LoginComponent</text>
</g>
<!-- LoginComponent&#45;&gt;MainModule -->
<g id="edge2" class="edge">
<title>LoginComponent&#45;&gt;MainModule</title>
<path fill="none" stroke="black" d="M487,-122.02C487,-139.37 487,-163 487,-163 487,-163 402.75,-163 402.75,-163"/>
<polygon fill="black" stroke="black" points="402.75,-159.5 392.75,-163 402.75,-166.5 402.75,-159.5"/>
</g>
<!-- RegisterComponent -->
<g id="node3" class="node">
<title>RegisterComponent</title>
<polygon fill="#ffffb3" stroke="black" points="411.98,-122 284.02,-122 284.02,-86 411.98,-86 411.98,-122"/>
<text text-anchor="middle" x="348" y="-99.8" font-family="Times,serif" font-size="14.00">RegisterComponent</text>
</g>
<!-- RegisterComponent&#45;&gt;MainModule -->
<g id="edge3" class="edge">
<title>RegisterComponent&#45;&gt;MainModule</title>
<path fill="none" stroke="black" d="M348,-122.11C348,-122.11 348,-140.99 348,-140.99"/>
<polygon fill="black" stroke="black" points="344.5,-140.99 348,-150.99 351.5,-140.99 344.5,-140.99"/>
</g>
<!-- MainRoutingModule -->
<g id="node5" class="node">
<title>MainRoutingModule</title>
<polygon fill="#8dd3c7" stroke="black" points="260.22,-122 257.22,-126 236.22,-126 233.22,-122 125.78,-122 125.78,-86 260.22,-86 260.22,-122"/>
<text text-anchor="middle" x="193" y="-99.8" font-family="Times,serif" font-size="14.00">MainRoutingModule</text>
</g>
<!-- MainRoutingModule&#45;&gt;MainModule -->
<g id="edge4" class="edge">
<title>MainRoutingModule&#45;&gt;MainModule</title>
<path fill="none" stroke="black" d="M193,-122.02C193,-139.37 193,-163 193,-163 193,-163 293.17,-163 293.17,-163"/>
<polygon fill="black" stroke="black" points="293.17,-166.5 303.17,-163 293.17,-159.5 293.17,-166.5"/>
</g>
<!-- TripModule -->
<g id="node6" class="node">
<title>TripModule</title>
<polygon fill="#8dd3c7" stroke="black" points="107.65,-122 104.65,-126 83.65,-126 80.65,-122 24.35,-122 24.35,-86 107.65,-86 107.65,-122"/>
<text text-anchor="middle" x="66" y="-99.8" font-family="Times,serif" font-size="14.00">TripModule</text>
</g>
<!-- TripModule&#45;&gt;MainModule -->
<g id="edge5" class="edge">
<title>TripModule&#45;&gt;MainModule</title>
<path fill="none" stroke="black" d="M66,-122.28C66,-143.32 66,-175 66,-175 66,-175 293.32,-175 293.32,-175"/>
<polygon fill="black" stroke="black" points="293.32,-178.5 303.32,-175 293.32,-171.5 293.32,-178.5"/>
</g>
</g>
</svg>
